name GIL04_slow3.mot
datacolumns 153
datarows 4
range 0.41666666 0.44166666
endheader

                time	           pelvis_tx	           pelvis_ty	           pelvis_tz	         pelvis_tilt	         pelvis_list	     pelvis_rotation	       hip_flexion_r	     hip_adduction_r	      hip_rotation_r	        knee_angle_r	       ankle_angle_r	    subtalar_angle_r	         mtp_angle_r	       hip_flexion_l	     hip_adduction_l	      hip_rotation_l	        knee_angle_l	       ankle_angle_l	    subtalar_angle_l	         mtp_angle_l	    lumbar_extension	      lumbar_bending	     lumbar_rotation	     ground_force_vx	     ground_force_vy	     ground_force_vz	     ground_force_px	     ground_force_py	     ground_force_pz	     ground_force_vx	     ground_force_vy	     ground_force_vz	     ground_force_px	     ground_force_py	     ground_force_pz	     ground_torque_x	     ground_torque_y	     ground_torque_z	     ground_torque_x	     ground_torque_y	     ground_torque_z	    ground_marker_px	    ground_marker_py	    ground_marker_pz	    ground_marker_px	    ground_marker_py	    ground_marker_pz	    ground_marker_px	    ground_marker_py	    ground_marker_pz	    ground_marker_px	    ground_marker_py	    ground_marker_pz	    ground_marker_px	    ground_marker_py	    ground_marker_pz	    ground_marker_px	    ground_marker_py	    ground_marker_pz	    ground_marker_px	    ground_marker_py	    ground_marker_pz	    ground_marker_px	    ground_marker_py	    ground_marker_pz	    ground_marker_px	    ground_marker_py	    ground_marker_pz	    ground_marker_px	    ground_marker_py	    ground_marker_pz	    ground_marker_px	    ground_marker_py	    ground_marker_pz	    ground_marker_px	    ground_marker_py	    ground_marker_pz	    ground_marker_px	    ground_marker_py	    ground_marker_pz	    ground_marker_px	    ground_marker_py	    ground_marker_pz	    ground_marker_px	    ground_marker_py	    ground_marker_pz	    ground_marker_px	    ground_marker_py	    ground_marker_pz	    ground_marker_px	    ground_marker_py	    ground_marker_pz	    ground_marker_px	    ground_marker_py	    ground_marker_pz	    ground_marker_px	    ground_marker_py	    ground_marker_pz	    ground_marker_px	    ground_marker_py	    ground_marker_pz	    ground_marker_px	    ground_marker_py	    ground_marker_pz	    ground_marker_px	    ground_marker_py	    ground_marker_pz	    ground_marker_px	    ground_marker_py	    ground_marker_pz	    ground_marker_px	    ground_marker_py	    ground_marker_pz	    ground_marker_px	    ground_marker_py	    ground_marker_pz	    ground_marker_px	    ground_marker_py	    ground_marker_pz	    ground_marker_px	    ground_marker_py	    ground_marker_pz	    ground_marker_px	    ground_marker_py	    ground_marker_pz	    ground_marker_px	    ground_marker_py	    ground_marker_pz	    ground_marker_px	    ground_marker_py	    ground_marker_pz	    ground_marker_px	    ground_marker_py	    ground_marker_pz	    ground_marker_px	    ground_marker_py	    ground_marker_pz	    ground_marker_px	    ground_marker_py	    ground_marker_pz	    ground_marker_px	    ground_marker_py	    ground_marker_pz	    ground_marker_px	    ground_marker_py	    ground_marker_pz	    ground_marker_px	    ground_marker_py	    ground_marker_pz	    ground_marker_px	    ground_marker_py	    ground_marker_pz	
          0.41666666	          0.36911288	          0.75659114	         -0.22146486	         -0.83858395	          0.48593542	          0.66337490	         -5.59948778	          5.39522123	          3.40832424	         -6.64473104	         10.14947891	          0.00000000	          0.00000000	         25.71014023	         -1.22514331	         -9.15074921	        -29.28041077	          2.62802958	          0.00000000	          0.00000000	        -15.59173203	         -0.29900762	          3.95551825	         -2.60740657	        290.81198263	         -5.03019363	          0.29981674	          0.00000000	         -0.20460797	          0.00000000	          0.00000000	          0.00000000	          0.68822290	          0.00000000	         -0.28595529	          0.00000000	          1.12788037	          0.00000000	          0.00000000	          0.00000000	          0.00000000	          0.31112471	          0.68588853	         -0.22522098	          0.30526444	          0.69112533	         -0.15865324	          0.30408114	          0.69248945	         -0.28446919	          0.27015194	          0.38272664	         -0.19101256	          0.44127244	          0.39650244	         -0.29594895	          0.19686736	          0.05997911	         -0.19697805	          0.41565076	          0.07867787	         -0.30056903	          0.36911288	          0.75659114	         -0.22146486	          0.36999691	          0.75557202	         -0.12746769	          0.36822885	          0.75761026	         -0.31546202	          0.22566132	          0.79314590	         -0.20377783	          0.22239441	          0.78633416	         -0.25837284	          0.27307567	          0.37713647	         -0.14090814	          0.43315059	          0.39465007	         -0.34525013	          0.26352891	          0.38378176	         -0.23962691	          0.46110928	          0.39790723	         -0.24136071	          0.19416805	          0.05997485	         -0.16358697	          0.40223542	          0.08022086	         -0.33231643	          0.19428383	          0.06991290	         -0.22298586	          0.41407445	          0.08477457	         -0.27151307	          0.26908630	          1.14176297	         -0.21513636	          0.35280377	          1.09429967	         -0.15628596	          0.34282598	          1.09751344	         -0.28524297	          0.34205234	          1.08450186	         -0.22320233	          0.36069909	          0.94183487	         -0.22743100	          0.28865945	          0.45811129	         -0.05397893	          0.51676118	          0.54342431	         -0.34782439	          0.32380423	          0.52073830	         -0.11543670	          0.44432208	          0.57153636	         -0.28367731	          0.32397750	          0.43981129	         -0.14022480	          0.47013602	          0.48755252	         -0.27541894	          0.20961490	          0.15775080	         -0.08623660	          0.49588186	          0.17077349	         -0.35686985	          0.22497851	          0.21288723	         -0.14467587	          0.45144361	          0.23147190	         -0.32386762	          0.29223353	          0.03794250	         -0.19907302	          0.49907562	          0.05763724	         -0.32023689	
          0.42500001	          0.37584627	          0.75565720	         -0.22192682	         -0.81408024	          0.41997477	          0.70099813	         -6.59834194	          5.40416908	          3.86431885	         -5.95792103	         10.13910866	          0.00000000	          0.00000000	         25.87710571	         -1.05541539	         -9.55828285	        -26.55449295	          2.15575671	          0.00000000	          0.00000000	        -15.65194225	         -0.26758558	          4.00318670	         -0.30179317	        293.09370427	         -5.05210991	          0.30029590	          0.00000000	         -0.20480161	          0.00000000	          0.00000000	          0.00000000	          0.68953583	          0.00000000	         -0.28635406	          0.00000000	          1.18851379	          0.00000000	          0.00000000	          0.00000000	          0.00000000	          0.31778508	          0.68494833	         -0.22560424	          0.31208247	          0.69022512	         -0.15899412	          0.31078589	          0.69146580	         -0.28481022	          0.27174845	          0.38281998	         -0.19096752	          0.44911405	          0.39560494	         -0.29517272	          0.19697976	          0.06043935	         -0.19733113	          0.43929890	          0.07643106	         -0.30129549	          0.37584627	          0.75565720	         -0.22192682	          0.37681431	          0.75473082	         -0.12798977	          0.37487820	          0.75658351	         -0.31586388	          0.23239601	          0.79220414	         -0.20441291	          0.22923267	          0.78523290	         -0.25898322	          0.27502790	          0.37718114	         -0.14089058	          0.44070095	          0.39339599	         -0.34441030	          0.26485842	          0.38438582	         -0.23969869	          0.46827668	          0.39692527	         -0.24092348	          0.19417626	          0.06043061	         -0.16394864	          0.42560229	          0.07745937	         -0.33294350	          0.19446887	          0.07043006	         -0.22329347	          0.43775624	          0.08212668	         -0.27215081	          0.27621847	          1.14084911	         -0.21575281	          0.36001700	          1.09334791	         -0.15692164	          0.34983376	          1.09654045	         -0.28595150	          0.34916207	          1.08352089	         -0.22390819	          0.36771742	          0.94086415	         -0.22808868	          0.29269719	          0.45791981	         -0.05411798	          0.52315593	          0.54217994	         -0.34819111	          0.32810175	          0.52019757	         -0.11578783	          0.45073700	          0.57032454	         -0.28381386	          0.32697979	          0.43942109	         -0.14073627	          0.47685841	          0.48648661	         -0.27535221	          0.20984748	          0.15815511	         -0.08644150	          0.51428121	          0.17297982	         -0.35750079	          0.22561431	          0.21328813	         -0.14487778	          0.46698269	          0.23101163	         -0.32380188	          0.29226640	          0.03793584	         -0.19914462	          0.52358830	          0.05893278	         -0.32114786	
          0.43333334	          0.38263661	          0.75464022	         -0.22239211	         -0.80111694	          0.34150025	          0.73073858	         -7.57733393	          5.42823219	          4.30103064	         -5.29199028	         10.11846447	          0.00000000	          0.00000000	         25.98161697	         -0.89281851	         -9.93246937	        -23.75801086	          1.63163173	          0.00000000	          0.00000000	        -15.67621136	         -0.18711476	          4.04918861	          2.09442674	        295.61803321	         -5.10208099	          0.30068152	          0.00000000	         -0.20494885	          0.00000000	          0.00000000	          0.00000000	          0.69054785	          0.00000000	         -0.28669067	          0.00000000	          1.25103931	          0.00000000	          0.00000000	          0.00000000	          0.00000000	          0.32446951	          0.68393874	         -0.22597352	          0.31893885	          0.68927044	         -0.15932798	          0.31754014	          0.69035733	         -0.28514442	          0.27345660	          0.38294783	         -0.19091885	          0.45661014	          0.39447919	         -0.29434311	          0.19711575	          0.06093676	         -0.19765852	          0.46263355	          0.07476000	         -0.30204970	          0.38263661	          0.75464022	         -0.22239211	          0.38368025	          0.75382930	         -0.12851222	          0.38159293	          0.75545114	         -0.31627202	          0.23917405	          0.79121566	         -0.20506610	          0.23613191	          0.78407127	         -0.25960976	          0.27706641	          0.37725049	         -0.14087127	          0.44793189	          0.39192903	         -0.34351817	          0.26680791	          0.38478035	         -0.24008302	          0.47505057	          0.39555416	         -0.24086753	          0.19419824	          0.06092994	         -0.16428581	          0.44865134	          0.07525672	         -0.33358538	          0.19468266	          0.07100558	         -0.22358447	          0.46122006	          0.08010256	         -0.27281570	          0.28335410	          1.13983285	         -0.21648432	          0.36720732	          1.09223294	         -0.15769464	          0.35687265	          1.09547150	         -0.28668231	          0.35629889	          1.08247817	         -0.22463930	          0.37469605	          0.93976361	         -0.22890180	          0.29676342	          0.45771843	         -0.05428422	          0.52939153	          0.54061931	         -0.34842157	          0.33168837	          0.51989084	         -0.11613097	          0.45704597	          0.56884998	         -0.28396079	          0.33010116	          0.43907452	         -0.14152944	          0.48335323	          0.48508623	         -0.27545404	          0.21010026	          0.15862595	         -0.08662564	          0.53210455	          0.17549393	         -0.35819036	          0.22635843	          0.21376725	         -0.14509287	          0.48206732	          0.23062877	         -0.32387456	          0.29229558	          0.03792701	         -0.19920203	          0.54764622	          0.06075436	         -0.32210380	
          0.44166666	          0.38948977	          0.75354540	         -0.22286591	         -0.80203152	          0.24938604	          0.75484657	         -8.52961254	          5.46729183	          4.70211077	         -4.65505648	         10.09089279	          0.00000000	          0.00000000	         26.03250504	         -0.73645329	        -10.26222324	        -20.91454887	          1.05471945	          0.00000000	          0.00000000	        -15.67716789	         -0.13561384	          3.99189854	          4.53412311	        298.32610177	         -5.26051847	          0.30103793	          0.00000000	         -0.20504385	          0.00000000	          0.00000000	          0.00000000	          0.69133356	          0.00000000	         -0.28689468	          0.00000000	          1.30692334	          0.00000000	          0.00000000	          0.00000000	          0.00000000	          0.33120754	          0.68286228	         -0.22633559	          0.32583952	          0.68826962	         -0.15965663	          0.32434437	          0.68917096	         -0.28547341	          0.27530587	          0.38310680	         -0.19086586	          0.46378967	          0.39315519	         -0.29345855	          0.19728041	          0.06147595	         -0.19794619	          0.48554972	          0.07368607	         -0.30283776	          0.38948977	          0.75354540	         -0.22286591	          0.39060476	          0.75287330	         -0.12903871	          0.38837478	          0.75421757	         -0.31669310	          0.24602713	          0.79018557	         -0.20573996	          0.24309628	          0.78286028	         -0.26025924	          0.27920827	          0.37734520	         -0.14084761	          0.45487821	          0.39028209	         -0.34257403	          0.26899311	          0.38489938	         -0.24057180	          0.48141730	          0.39391401	         -0.24061358	          0.19424094	          0.06147888	         -0.16458438	          0.47128165	          0.07363642	         -0.33424905	          0.19504191	          0.07159074	         -0.22388202	          0.48421636	          0.07878899	         -0.27349105	          0.29051021	          1.13875759	         -0.21721537	          0.37427649	          1.09113419	         -0.15858726	          0.36401185	          1.09425485	         -0.28742248	          0.36346564	          1.08138049	         -0.22540104	          0.38164970	          0.93858695	         -0.22956443	          0.30084932	          0.45751885	         -0.05447077	          0.53549701	          0.53878683	         -0.34850046	          0.33478770	          0.51974130	         -0.11646102	          0.46307087	          0.56711477	         -0.28407347	          0.33321467	          0.43858814	         -0.14250384	          0.48954734	          0.48335350	         -0.27539998	          0.21039188	          0.15916964	         -0.08677905	          0.54930174	          0.17830764	         -0.35893971	          0.22710904	          0.21421348	         -0.14520523	          0.49668047	          0.23042224	         -0.32394698	          0.29232284	          0.03791998	         -0.19924289	          0.57116199	          0.06309167	         -0.32311973	
